<?xml version="1.0" encoding="UTF-8"?>
<svg xmlns="http://www.w3.org/2000/svg" xmlns:xlink="http://www.w3.org/1999/xlink" width="20px" height="20px" viewBox="0 0 20 20" version="1.1">
<g id="surface1">
<path style=" stroke:none;fill-rule:nonzero;fill:rgb(0%,0%,0%);fill-opacity:1;" d="M 11.175781 1.617188 C 10.527344 1.128906 9.46875 1.128906 8.816406 1.617188 L 0.484375 7.867188 C -0.167969 8.355469 -0.167969 9.148438 0.484375 9.636719 C 1.136719 10.125 2.191406 10.125 2.84375 9.636719 L 8.332031 5.515625 L 8.332031 17.5 C 8.332031 18.191406 9.078125 18.75 10 18.75 C 10.921875 18.75 11.667969 18.191406 11.667969 17.5 L 11.667969 5.515625 L 17.15625 9.632812 C 17.808594 10.121094 18.863281 10.121094 19.515625 9.632812 C 20.167969 9.144531 20.167969 8.351562 19.515625 7.863281 L 11.183594 1.613281 Z M 11.175781 1.617188 "/>
</g>
</svg>
