<?xml version="1.0" encoding="UTF-8"?>
<svg xmlns="http://www.w3.org/2000/svg" xmlns:xlink="http://www.w3.org/1999/xlink" width="px" height="px" viewBox="0 0 384 384" version="1.1">
<g id="surface1">
<path style=" stroke:none;fill-rule:nonzero;fill:rgb(0%,0%,0%);fill-opacity:1;" d="M 111.824219 48.601562 L 104.023438 72 L 48 72 C 21.523438 72 0 93.523438 0 120 L 0 312 C 0 338.476562 21.523438 360 48 360 L 336 360 C 362.476562 360 384 338.476562 384 312 L 384 120 C 384 93.523438 362.476562 72 336 72 L 279.976562 72 L 272.175781 48.601562 C 267.300781 33.898438 253.574219 24 238.050781 24 L 145.949219 24 C 130.425781 24 116.699219 33.898438 111.824219 48.601562 Z M 192 144 C 231.765625 144 264 176.234375 264 216 C 264 255.765625 231.765625 288 192 288 C 152.234375 288 120 255.765625 120 216 C 120 176.234375 152.234375 144 192 144 Z M 192 144 "/>
</g>
</svg>
