<?xml version="1.0" encoding="UTF-8"?>
<svg xmlns="http://www.w3.org/2000/svg" xmlns:xlink="http://www.w3.org/1999/xlink" width="15px" height="15px" viewBox="0 0 15 15" version="1.1">
<g id="surface1">
<path style=" stroke:none;fill-rule:nonzero;fill:rgb(0%,0%,0%);fill-opacity:1;" d="M 14.765625 7.5 C 14.765625 3.484375 11.515625 0.234375 7.5 0.234375 C 3.484375 0.234375 0.234375 3.484375 0.234375 7.5 C 0.234375 11.125 2.890625 14.132812 6.363281 14.679688 L 6.363281 9.601562 L 4.519531 9.601562 L 4.519531 7.5 L 6.363281 7.5 L 6.363281 5.898438 C 6.363281 4.078125 7.449219 3.074219 9.109375 3.074219 C 9.902344 3.074219 10.734375 3.214844 10.734375 3.214844 L 10.734375 5 L 9.820312 5 C 8.917969 5 8.636719 5.5625 8.636719 6.136719 L 8.636719 7.5 L 10.648438 7.5 L 10.328125 9.601562 L 8.636719 9.601562 L 8.636719 14.679688 C 12.109375 14.132812 14.765625 11.125 14.765625 7.5 Z M 14.765625 7.5 "/>
</g>
</svg>
