<?xml version="1.0" encoding="UTF-8"?>
<svg xmlns="http://www.w3.org/2000/svg" xmlns:xlink="http://www.w3.org/1999/xlink" width="px" height="px" viewBox="0 0 384 384" version="1.1">
<g id="surface1">
<path style=" stroke:none;fill-rule:nonzero;fill:rgb(0%,0%,0%);fill-opacity:1;" d="M 169.875 69.675781 C 180.601562 101.851562 169.648438 134.324219 145.425781 142.273438 C 121.199219 150.226562 92.851562 130.574219 82.125 98.398438 C 71.398438 66.226562 82.351562 33.75 106.574219 25.800781 C 130.800781 17.851562 159.148438 37.5 169.875 69.675781 Z M 75.300781 148.949219 C 89.476562 173.25 86.023438 201.523438 67.648438 212.023438 C 49.273438 222.523438 22.875 211.351562 8.773438 187.050781 C -5.324219 162.75 -2.023438 134.476562 16.351562 123.976562 C 34.726562 113.476562 61.125 124.648438 75.226562 148.949219 Z M 51.898438 300.898438 C 91.199219 194.925781 161.023438 168 192 168 C 222.976562 168 292.800781 194.925781 332.101562 300.898438 C 334.800781 308.175781 336 315.976562 336 323.773438 L 336 324.976562 C 336 344.324219 320.324219 360 300.976562 360 C 292.351562 360 283.800781 358.949219 275.476562 356.851562 L 209.476562 340.351562 C 198 337.5 186 337.5 174.523438 340.351562 L 108.523438 356.851562 C 100.199219 358.949219 91.648438 360 83.023438 360 C 63.675781 360 48 344.324219 48 324.976562 L 48 323.773438 C 48 315.976562 49.199219 308.175781 51.898438 300.898438 Z M 316.351562 212.023438 C 297.976562 201.523438 294.523438 173.25 308.699219 148.949219 C 322.875 124.648438 349.199219 113.476562 367.574219 123.976562 C 385.949219 134.476562 389.398438 162.75 375.226562 187.050781 C 361.050781 211.351562 334.726562 222.523438 316.351562 212.023438 Z M 232.574219 142.273438 C 208.351562 134.324219 197.398438 101.851562 208.125 69.675781 C 218.851562 37.5 247.199219 17.851562 271.425781 25.800781 C 295.648438 33.75 306.601562 66.226562 295.875 98.398438 C 285.148438 130.574219 256.800781 150.226562 232.574219 142.273438 Z M 232.574219 142.273438 "/>
</g>
</svg>
