<?xml version="1.0" encoding="UTF-8"?>
<svg xmlns="http://www.w3.org/2000/svg" xmlns:xlink="http://www.w3.org/1999/xlink" width="15px" height="15px" viewBox="0 0 15 15" version="1.1">
<g id="surface1">
<path style=" stroke:none;fill-rule:nonzero;fill:rgb(0%,0%,0%);fill-opacity:1;" d="M 4.832031 0.71875 C 4.605469 0.175781 4.011719 -0.113281 3.441406 0.0429688 L 0.863281 0.746094 C 0.355469 0.882812 0 1.347656 0 1.875 C 0 9.125 5.875 15 13.125 15 C 13.652344 15 14.117188 14.644531 14.257812 14.136719 L 14.960938 11.558594 C 15.113281 10.988281 14.824219 10.394531 14.28125 10.167969 L 11.46875 8.996094 C 10.988281 8.796875 10.4375 8.9375 10.109375 9.335938 L 8.925781 10.78125 C 6.863281 9.804688 5.195312 8.136719 4.21875 6.074219 L 5.664062 4.890625 C 6.0625 4.5625 6.203125 4.015625 6.003906 3.535156 L 4.832031 0.722656 Z M 4.832031 0.71875 "/>
</g>
</svg>
