<?xml version="1.0" encoding="UTF-8"?>
<svg xmlns="http://www.w3.org/2000/svg" xmlns:xlink="http://www.w3.org/1999/xlink" width="15px" height="15px" viewBox="0 0 15 15" version="1.1">
<g id="surface1">
<path style=" stroke:none;fill-rule:nonzero;fill:rgb(0%,0%,0%);fill-opacity:1;" d="M 9.800781 12.128906 C 10.058594 12.242188 10.355469 12.1875 10.5625 11.992188 L 14.78125 8.007812 C 14.921875 7.878906 15 7.691406 15 7.5 C 15 7.304688 14.921875 7.121094 14.78125 6.988281 L 10.5625 3.003906 C 10.355469 2.8125 10.058594 2.757812 9.800781 2.871094 C 9.542969 2.980469 9.375 3.238281 9.375 3.515625 L 9.375 5.625 L 0.9375 5.625 C 0.417969 5.625 0 6.042969 0 6.5625 L 0 8.4375 C 0 8.957031 0.417969 9.375 0.9375 9.375 L 9.375 9.375 L 9.375 11.484375 C 9.375 11.765625 9.542969 12.015625 9.800781 12.128906 Z M 9.800781 12.128906 "/>
</g>
</svg>
