<?xml version="1.0" encoding="UTF-8"?>
<svg xmlns="http://www.w3.org/2000/svg" xmlns:xlink="http://www.w3.org/1999/xlink" width="px" height="px" viewBox="0 0 384 384" version="1.1">
<g id="surface1">
<path style=" stroke:none;fill-rule:nonzero;fill:rgb(0%,0%,0%);fill-opacity:1;" d="M 202.050781 2.175781 C 198.898438 0.75 195.523438 0 192 0 C 188.476562 0 185.101562 0.75 181.949219 2.175781 L 40.726562 62.101562 C 24.226562 69.074219 11.925781 85.351562 12 105 C 12.375 179.398438 42.976562 315.523438 172.199219 377.398438 C 184.726562 383.398438 199.273438 383.398438 211.800781 377.398438 C 341.023438 315.523438 371.625 179.398438 372 105 C 372.074219 85.351562 359.773438 69.074219 343.273438 62.101562 Z M 120.675781 214.648438 C 124.273438 215.550781 128.101562 216 132 216 C 158.476562 216 180 194.476562 180 168 L 180 120 L 213.148438 120 C 222.226562 120 230.550781 125.101562 234.601562 133.273438 L 240 144 L 288 144 C 294.601562 144 300 149.398438 300 156 L 300 180 C 300 213.148438 273.148438 240 240 240 L 204 240 L 204 278.023438 C 204 283.5 199.574219 288 194.023438 288 C 192.675781 288 191.324219 287.699219 190.125 287.175781 L 116.101562 255.449219 C 111.148438 253.351562 108 248.476562 108 243.148438 C 108 241.050781 108.449219 239.023438 109.425781 237.148438 Z M 120 120 L 156 120 L 156 168 C 156 181.273438 145.273438 192 132 192 C 118.726562 192 108 181.273438 108 168 L 108 132 C 108 125.398438 113.398438 120 120 120 Z M 216 156 C 216 149.371094 210.628906 144 204 144 C 197.371094 144 192 149.371094 192 156 C 192 162.628906 197.371094 168 204 168 C 210.628906 168 216 162.628906 216 156 Z M 216 156 "/>
</g>
</svg>
