<?xml version="1.0" encoding="UTF-8"?>
<svg xmlns="http://www.w3.org/2000/svg" xmlns:xlink="http://www.w3.org/1999/xlink" width="110px" height="110px" viewBox="0 0 110 110" version="1.1">
<g id="surface1">
<path style=" stroke:none;fill-rule:nonzero;fill:rgb(0%,0%,0%);fill-opacity:1;" d="M 74.644531 27.5 C 74.644531 18.007812 65.847656 10.3125 55 10.3125 C 44.152344 10.3125 35.355469 18.007812 35.355469 27.5 C 35.355469 36.992188 44.152344 44.6875 55 44.6875 C 65.847656 44.6875 74.644531 36.992188 74.644531 27.5 Z M 23.570312 27.5 C 23.570312 12.3125 37.640625 0 55 0 C 72.359375 0 86.429688 12.3125 86.429688 27.5 C 86.429688 42.6875 72.359375 55 55 55 C 37.640625 55 23.570312 42.6875 23.570312 27.5 Z M 12.105469 99.6875 L 97.894531 99.6875 C 95.710938 86.085938 82.351562 75.625 66.222656 75.625 L 43.777344 75.625 C 27.648438 75.625 14.289062 86.085938 12.105469 99.6875 Z M 0 103.617188 C 0 82.457031 19.59375 65.3125 43.777344 65.3125 L 66.222656 65.3125 C 90.40625 65.3125 110 82.457031 110 103.617188 C 110 107.140625 106.734375 110 102.707031 110 L 7.292969 110 C 3.265625 110 0 107.140625 0 103.617188 Z M 0 103.617188 "/>
</g>
</svg>
